# xmcd CD database file
#
# Track frame offsets:
#	150
#	12137
#	27085
#	39016
#	58213
#	72443
#	86539
#	99757
#	119607
#	133267
#	147942
#	159377
#	170443
#	184870
#	193975
#	209240
#
# Disc length: 2999 seconds
#
# Revision: 0
# Processed by: cddbd v1.5.2PL0 Copyright (c) Steve Scherf et al.
# Submitted via: cdripper 1,0,33,916
#
DISCID=e50bb510
DTITLE=Royal Wade Kimes - How The West Was Sung
DYEAR=2008
DGENRE=Country
TTITLE0=Faster Gun
TTITLE1=Jacob's Well
TTITLE2=The Stranger And Clyde
TTITLE3=Ponies
TTITLE4=Night Birds
TTITLE5=Lonesome Cowboy
TTITLE6=Shooting Star
TTITLE7=The White Horse
TTITLE8=On The Border
TTITLE9=Senorita
TTITLE10=Ride
TTITLE11=Boogie Man
TTITLE12=A Dyin Breed
TTITLE13=Where Have All The Cowboys Gone
TTITLE14=Apache Kid
TTITLE15=I Come To Dance
EXTD=YEAR: 2008
EXTT0=
EXTT1=
EXTT2=
EXTT3=
EXTT4=
EXTT5=
EXTT6=
EXTT7=
EXTT8=
EXTT9=
EXTT10=
EXTT11=
EXTT12=
EXTT13=
EXTT14=
EXTT15=
PLAYORDER=
